<svg xmlns="http://www.w3.org/2000/svg" xmlns:xlink="http://www.w3.org/1999/xlink" width="63" height="17"><defs><path id="a" d="M.053.106h6.2v10.289h-6.2z"/></defs><g fill="none" fill-rule="evenodd"><path fill="#000" fill-rule="nonzero" d="M5.98 0L1.63 15.762H.564V16h2.573v-.238H1.842l1.474-5.435h3.687l1.46 5.435H7.018V16h4.545v-.238h-1.084L6.1 0h-.12zm-.828 3.659l1.776 6.43H3.392l1.76-6.43zM12.563 0v.24h.885v15.52h-.886V16h3v-.24h-.885V0zM22.044 6.635H20.92v-.238h2.686v1.65c.052-.203.122-.424.21-.663.09-.238.206-.463.352-.673.146-.21.328-.383.547-.52.218-.138.478-.207.78-.207.063 0 .188.011.375.033.188.022.398.094.633.217.234.123.47.311.71.564.24.254.448.612.625 1.075.198-.536.453-.984.765-1.346.313-.362.76-.543 1.343-.543.427 0 .81.098 1.148.293.338.196.617.46.836.793.27.42.45.864.538 1.335.089.47.133 1.06.133 1.769v5.448h1.124v.238h-3.779v-.238h1.093V9.284c0-.362-.007-.724-.023-1.086a4.072 4.072 0 0 0-.156-.987 1.7 1.7 0 0 0-.398-.717c-.177-.18-.422-.271-.734-.271-.157 0-.316.03-.477.087-.161.058-.32.163-.476.315a2.55 2.55 0 0 0-.445.618c-.14.26-.273.586-.398.977.062.275.106.579.132.912.026.333.04.68.04 1.042v5.448h1.124v.238h-3.78v-.238h1.094V9.414c0-.492-.013-.937-.04-1.335a4.26 4.26 0 0 0-.171-1.01c-.089-.274-.21-.484-.367-.629-.156-.144-.36-.217-.61-.217-.333 0-.608.12-.827.358a2.896 2.896 0 0 0-.539.88c-.14.347-.24.72-.296 1.117a7.596 7.596 0 0 0-.086 1.075v5.969h1.093v.238h-3.78v-.238h1.125V6.635zM39.394 10.347c0-.781-.02-1.436-.062-1.964-.042-.528-.115-.951-.219-1.27-.104-.318-.25-.546-.437-.684-.188-.137-.427-.206-.718-.206-.355 0-.633.094-.836.282-.203.188-.357.463-.46.825-.105.362-.17.796-.196 1.302a33.693 33.693 0 0 0-.039 1.715h2.967zm1.437 3.625a3.745 3.745 0 0 1-.453.988c-.187.282-.4.52-.64.716-.24.195-.497.344-.773.445-.276.1-.554.152-.836.152-.468 0-.91-.113-1.327-.336a3.331 3.331 0 0 1-1.093-.967c-.313-.419-.562-.93-.75-1.53-.187-.6-.281-1.284-.281-2.051 0-.752.094-1.458.281-2.116.188-.659.437-1.23.75-1.715.312-.485.669-.868 1.07-1.15.4-.283.814-.424 1.24-.424.324 0 .654.098.993.293.338.196.645.489.921.88.276.39.502.871.68 1.443.176.572.265 1.234.265 1.986h-4.45v.781c0 .594.007 1.172.023 1.737a6.94 6.94 0 0 0 .187 1.497c.11.435.278.782.508 1.042.228.26.556.391.983.391.188 0 .396-.029.625-.087.229-.058.46-.17.695-.336a3.23 3.23 0 0 0 .672-.662c.213-.275.398-.63.554-1.064l.156.087zM42.94 6.635h-1.125v-.238H44.5v1.65c.052-.203.125-.424.218-.663.094-.238.217-.463.368-.673.15-.21.333-.383.546-.52a1.37 1.37 0 0 1 .758-.207c.447 0 .843.102 1.186.304.344.203.61.47.797.803.27.464.442.959.515 1.487.073.528.11 1.06.11 1.596v5.448h1.124v.238h-3.78v-.238h1.094V9.414c0-.492-.013-.937-.04-1.335a4.26 4.26 0 0 0-.171-1.01c-.088-.274-.21-.484-.367-.629-.156-.144-.36-.217-.61-.217-.311 0-.58.112-.803.337a2.572 2.572 0 0 0-.547.846c-.14.34-.242.713-.304 1.118a7.43 7.43 0 0 0-.094 1.129v5.969h1.093v.238h-3.78v-.238h1.125V6.635zM52.09 3.64a.318.318 0 0 0 .156.043h.157c.208 0 .424-.097.648-.292.224-.196.424-.496.601-.901v3.907h1.562v.238h-1.562v8.336c0 .405.036.665.11.781.072.116.187.174.343.174.062 0 .14-.015.234-.044a.821.821 0 0 0 .297-.184c.104-.094.205-.235.304-.424a3.2 3.2 0 0 0 .258-.76l.172.066c-.115.637-.326 1.078-.633 1.324s-.637.369-.991.369c-.594 0-1.018-.246-1.273-.738-.255-.492-.383-1.266-.383-2.323V6.635h-1.202v-.238h1.202V3.64z"/><g transform="translate(56.035 5.878)"><mask id="b" fill="#fff"><use xlink:href="#a"/></mask><path fill="#000" fill-rule="nonzero" d="M4.77 4.469c0-.781-.021-1.436-.063-1.964-.042-.528-.115-.952-.219-1.27-.104-.318-.25-.546-.437-.684-.187-.137-.427-.206-.718-.206-.355 0-.633.094-.836.282-.203.188-.357.463-.46.825-.105.362-.17.796-.196 1.302a33.693 33.693 0 0 0-.039 1.715H4.77zm1.436 3.625a3.744 3.744 0 0 1-.453.987 3.205 3.205 0 0 1-.64.717c-.24.195-.497.343-.773.445-.276.1-.554.152-.836.152-.468 0-.91-.113-1.327-.337a3.325 3.325 0 0 1-1.093-.966c-.312-.42-.562-.93-.75-1.53-.187-.6-.281-1.284-.281-2.051 0-.752.094-1.458.281-2.117.188-.658.438-1.23.75-1.714.312-.485.669-.868 1.07-1.15.4-.283.814-.424 1.241-.424.323 0 .653.098.992.293.338.195.645.489.921.88.276.39.502.871.68 1.443.176.571.265 1.233.265 1.986h-4.45v.781c0 .594.007 1.172.023 1.737.015.564.078 1.063.187 1.497.11.434.278.782.507 1.042.23.26.557.39.984.39.188 0 .396-.028.625-.086.23-.058.46-.17.695-.336.234-.167.458-.387.672-.662.213-.275.398-.63.554-1.064l.156.087z" mask="url(#b)"/></g><path fill="#000" fill-rule="nonzero" d="M18.86 14.544l-.036-.574a15.091 15.091 0 0 0-.036-.471l-.548-8.325c-.127.004-.253.007-.38.013l-.548 8.312c-.012.123-.024.28-.036.471l-.036.574c-.012.192-.024.366-.036.523a4.95 4.95 0 0 0-.018.318c0 .273.078.502.234.687a.782.782 0 0 0 .63.277.782.782 0 0 0 .63-.277c.156-.185.234-.414.234-.687 0-.055-.006-.16-.018-.318a34.216 34.216 0 0 1-.036-.523M18.044 3.812c.347 0 .587.171.722.409.363-.41.606-1.116.606-1.925C19.372 1.028 18.78 0 18.05 0c-.73 0-1.321 1.028-1.321 2.296 0 .804.24 1.506.6 1.916a.793.793 0 0 1 .715-.4"/></g></svg>