<svg xmlns="http://www.w3.org/2000/svg" width="79" height="12"><g fill="#000" fill-rule="evenodd"><path d="M11 0H7.878L5.605 5.543 3.267 0H0l5.392 11.932a.107.107 0 0 0 .2 0L11 0zM19 12h-3.118l-2.273-5.546L11.269 12H8L13.391.068a.107.107 0 0 1 .2 0L19 12zM29.772 11.924c.18.129.228.076.228-.023V.258h-2.752V6.04L20.228.076c-.18-.134-.228-.07-.228.03v11.669h2.752V6.04l7.02 5.883z"/><path fill-rule="nonzero" d="M32 0h3v12h-3z"/><path d="M39.994 12h3.012V2.62H46V0h-9v2.62h2.994zM51.523 8.66h-2.26l1.113-2.717 1.147 2.716zm-3.206 2.342H52.5l.428.998H56L50.604.09c-.047-.12-.147-.12-.194 0L45 12h2.913l.404-.998zM57.994 12h3.018V2.62H64V0h-9v2.62h2.994z"/><path fill-rule="nonzero" d="M66 0h3v12h-3z"/><path d="M74.721 12C77.7 12 79 10.517 79 8.379c0-1.696-.764-2.843-3.032-3.639l-1.474-.53c-.543-.194-.788-.418-.788-.883 0-.477.358-.83 1.08-.83.883 0 1.38.353 1.844.865l1.738-1.866C77.699.719 76.6 0 74.626 0c-2.017 0-3.892 1.152-3.892 3.433 0 1.978 1.183 3.035 2.853 3.62l1.313.478c.742.265 1.098.512 1.098 1.024 0 .666-.53.948-1.408.948-1.122 0-1.815-.577-2.37-1.301L70 9.921c.705.925 2.172 2.079 4.721 2.079z"/></g></svg>